# xmcd
#
# Track frame offsets: 
#        150
#        19747
#        34435
#        51165
#        66226
#        82006
#        96727
#        109206
#        123596
#        140616
#        154558
#        168202
#        178702
#        194144
#        207188
#
# Disc length: 2966 seconds
#
# Revision: 1
# Processed by: cddbd v1.5.2PL0 Copyright (c) Steve Scherf et al.
# Submitted via: ExactAudioCopyFreeDBPlugin 1.0
#
DISCID=e20b940f
DTITLE=Varios - Los Cuatro Grandes Maestros CD-2
DYEAR=2001
DGENRE=Latin
TTITLE0=La Piragua
TTITLE1=La Pava
TTITLE2=Las Pilanderas
TTITLE3=El Vaquero
TTITLE4=Navidad Negra
TTITLE5=Momposina
TTITLE6=La Llorona Loca
TTITLE7=Palmira Señorial
TTITLE8=Arbolito De Navidad
TTITLE9=El Mochilón
TTITLE10=Mi Calli Bella
TTITLE11=El Muñeco de la Ciudad
TTITLE12=El Gallo Tuerto
TTITLE13=El Guere Guere
TTITLE14=Nube Negra
EXTD=Los Cuatro de la musica Tropical Colombiana
EXTT0=
EXTT1=
EXTT2=
EXTT3=
EXTT4=
EXTT5=
EXTT6=
EXTT7=
EXTT8=
EXTT9=
EXTT10=
EXTT11=
EXTT12=
EXTT13=
EXTT14=
PLAYORDER=
